<svg xmlns="http://www.w3.org/2000/svg" viewBox="0 0 127.4 65.98"><defs><style>.cls-1{fill:#fdc5ce;}</style></defs><title>Resurs 2</title><g id="Lager_2" data-name="Lager 2"><g id="Lager_2-2" data-name="Lager 2"><path class="cls-1" d="M.63,59.08l-.4.21.08.14C.43,59.31.53,59.19.63,59.08Z"/><path class="cls-1" d="M.12,57.18,0,57.25l.08.1A.85.85,0,0,0,.12,57.18Z"/><path class="cls-1" d="M.31,59.43A4,4,0,0,1,1.12,61l-.88.46c-.07.4.3.56.45.85-.22.11-.44.23-.36.37,0,.44.41.57.88.43C1.32,61,3.43,59.2.31,59.43Z"/><path class="cls-1" d="M1.46,57.38.31,58a1.63,1.63,0,0,0,.35,1.06A3.17,3.17,0,0,0,1.46,57.38Z"/><path class="cls-1" d="M90.42,10c0-.09,0-.15.21-.12l-.21.12c0,.08.11.19,0,.29a18.27,18.27,0,0,1,2.33-1.67q.06-.32.09-.63c-2.1,1.21-4.24,2.33-5.6,4C88.52,11.37,89.24,10.67,90.42,10Z"/><path class="cls-1" d="M92.6,7.07,92.81,7C92.55,6.93,92.55,7,92.6,7.07Z"/><path class="cls-1" d="M56.08,30.27a14.43,14.43,0,0,0-3.09,3c2.28-1.71,4.73-3.25,6.35-4.78C58.27,29.1,57.18,29.69,56.08,30.27Z"/><path class="cls-1" d="M48.14,38.19a9,9,0,0,0,4-2.81q-1.86,1.23-3.72,2.41C48.31,37.92,48.21,38.05,48.14,38.19Z"/><path class="cls-1" d="M49.49,36.36A11.79,11.79,0,0,0,53,33.27,23.41,23.41,0,0,0,49.49,36.36Z"/><path class="cls-1" d="M72.34,7.83a9.86,9.86,0,0,1,1.59-1.64c0-.28.12-.63.23-1.07L74,5.21c-.89.79-1.8,1.56-2.73,2.32a7.77,7.77,0,0,0-.86,1.22C71.06,8.45,71.71,8.15,72.34,7.83Z"/><path class="cls-1" d="M73.93,6.19c-.39,2.36,1.24-.88,0,0Z"/><path class="cls-1" d="M72.21,18.4l-.15.08-.38.33Z"/><path class="cls-1" d="M57.92,20.79c.84-.51,1.65-1.07,2.43-1.65a31,31,0,0,0-4.62,3.33c.22-.11.52-.08.74-.2A3.8,3.8,0,0,1,57.92,20.79Z"/><path class="cls-1" d="M78.36,13.51c-2.2,1.61-4.3,3.28-6.3,5a55.53,55.53,0,0,0-12.19,8.36c-2.91,3-9.19,5.9-11.51,10a8.34,8.34,0,0,0,1.13-.48,11.35,11.35,0,0,0-1.1,1.43c-5.53,3.52-11,6.8-17,9.89-.87.46-1.31,1.23-2.18,1.69s-1.74,1-2.59,1.45c0,0,0,.06.08.08-3.51,2.07-6.92,4.21-10.41,6.63-1.68,1.06-3.5,1.84-5.26,2.75-.65.35-1-.22-1.46-.13a22.31,22.31,0,0,0-5.85,1.08l-.22-.42a2.65,2.65,0,0,1-.8.41c.11-2.08,2.22-3.9-.9-3.67h0l.31-.35.05,0h0A3.19,3.19,0,0,0,3,55.5l-1.15.61a1.27,1.27,0,0,0-.23-.64,1,1,0,0,1,0-.17L2,55.14a1.61,1.61,0,0,0,0-.39C2.6,53.61,4,52.47,3.41,52c-.39-.18-1,.47-1.73,1.08l-.24,0c1-.71-.52-1,.06-1.47.88-.46,1.68-1.06,2.56-1.52a90.36,90.36,0,0,0,9.77-5.84l.44-.29a32.3,32.3,0,0,1,4.91-2.7c-.05.15-.12.3-.18.45a19.68,19.68,0,0,0,4-2.2A86.71,86.71,0,0,1,32.37,33c3.61-2,7-4.18,10.47-6.61a35.76,35.76,0,0,1-4.24,3.11c-.71.36-1.41.72-2.07,1.1a17,17,0,0,0,2.07-1.1c2.73-1.35,5.59-2.63,7-5.05.29,0,.37.14.58,0,1.54-.81,3.14-1.47,4.16-2.72-.07-.14.58-.49.22-.66,1.24-.83,2.77-1.63,3.94-2.6a5.89,5.89,0,0,0,1.34-1.59c4.3-3.22,8.55-6.41,13.24-9.79A41.52,41.52,0,0,1,73,4.85C71.33,6.3,69.6,7.7,67.83,9.08a12.09,12.09,0,0,0-4.9,3.36c-.28.32-.56.63-.85.93C64,12,66,10.53,67.83,9.08c1.15-.53,2.35-1,3.48-1.62a.18.18,0,0,1,0,.07c-.79.64-1.59,1.28-2.41,1.92a13.39,13.39,0,0,0-4.49,2.87,6.12,6.12,0,0,0-.4.49c-.28.31-.56.62-.85.92,1.2-.87,2.4-1.75,3.57-2.63.73-.55,1.46-1.1,2.17-1.65l1.55-.7-.1.19c-.36.37-.72,2.68.16,2.76,3.35-1.8,7.73-4.95,7.81-4.81.51.45-4.88,4.22-4.58,4.24s.7-.22,1-.34c-.25.28-.48.55-.69.83-.58.48-1.53.8-1.82,1.32-1.09,1.65-3,2.28-4.45,3.76-.87,1-1.89,2.26-2.9,3.51.14.28-.59.49-.22.65-1.24.65-2.67,1.4-2.76,2.5l-.08.07a1.13,1.13,0,0,0-.29.29c-2.13.94-3.15,2.47-4.73,4a19,19,0,0,1-1.91,1.15,6.44,6.44,0,0,0,1.54-.8l.37-.35c1.56-1.05,3-2.26,4.37-3.39a5.27,5.27,0,0,1,.36-.6l.36-.15a1.48,1.48,0,0,1,0-.21c1.29-1.19,2.93-2.23,4-3.33a38.12,38.12,0,0,1,7.41-4.09c-1.11.88-2.19,1.78-3.24,2.68,1.37-1,2.65-2,3.88-3l.63-.33,1.32-.68c-.44.15-.87.31-1.3.48.73-.59,1.45-1.18,2.15-1.79a76.93,76.93,0,0,1,13-7.78,5,5,0,0,1,0,.67c-2.1,1.2-4.24,2.33-5.6,4,1.23-.65,2-1.35,3.14-2,0,.08.11.19,0,.3a19.35,19.35,0,0,1,2.33-1.68c-.08.51-.2,1-.32,1.56a6.46,6.46,0,0,1-1.53,1.34c-2.72,1.74-5.43,3.07-8.06,4.88-2.52,1.25-5,2.5-7.47,3.8C74.43,16.73,76.45,15.16,78.36,13.51ZM6.81,55.69l.58-.56-.15-.05A1,1,0,0,0,6.81,55.69ZM12,53.14a25.14,25.14,0,0,0-5.23,3.13.35.35,0,0,0,0,.12A35.32,35.32,0,0,0,12,53.14Zm7.55-.2-.06,0a.21.21,0,0,0,0,.06ZM43.87,34.45c-1.38,1.63-3.57,2.78-5.61,4.21-.66.34-1,1.25-1.89,1.71-1,.71-1.53,1.34-2.34,1.94l.81-.06c-1.61.66-2,2-3.72,2.49a.6.6,0,0,1-.22.65c-1,.72-2.26,1-3,1.75a21,21,0,0,0-2.84,2c-.22.11-.44.77-.8,1.14l-1.54,1,.13.08a6.23,6.23,0,0,0,1.26-.8c1.17-1,2.55-2.05,3.79-2.88,3.14-2,5.91-4.18,8.68-6.35.58-.48,1.09-1.11,1.67-1.6,1.68-1.59,4.16-2.72,5-4.39C43.36,35.08,43.8,34.85,43.87,34.45ZM43.11,27a27.43,27.43,0,0,1-6.65,4.45c-1.76.92-6.35,4.4-4.58,5.64C32.43,32.91,46.33,29.48,43.11,27ZM60,14.87a13.42,13.42,0,0,1-2.62,1.92C58.26,16.14,59.14,15.51,60,14.87ZM53.7,25.52C56,23,59,21.29,61.57,19.24c2-1.58,4.75-2.13,6.2-4.15l-.22-.43-.14.26c-.82.32-1.55.42-2.26.64l.09-.1-.18.12a4.08,4.08,0,0,0-1.38.75l-.62.57a37.85,37.85,0,0,0-7.33,5.57c-1.31,1.23-2.25,2.62-3.56,3.85A6.2,6.2,0,0,0,53.7,25.52Z"/><path class="cls-1" d="M74.14,15.29c.86-.66,1.72-1.33,2.61-2,.65-.56,1.29-1.13,1.92-1.72,3.12-2.6,7.36-4.5,11-6.81a2.47,2.47,0,0,0-.68-1.28C84.6,5.19,80.9,8.1,76.68,10l-.08.09c-1.31,1.77-4.3,3-6.12,4.83s-3.79,3.43-5.6,5.28C68,18.55,70.89,16.67,74.14,15.29Z"/><path class="cls-1" d="M52.11,35.38l2.45-1.61c2.25-1.61,4.17-3.15,6.1-4.81-1.57.91-3.17,1.81-4.8,2.66A19.64,19.64,0,0,0,52.11,35.38Z"/><path class="cls-1" d="M62.21,27.6,60.66,29c2.33-1.36,4.61-2.77,6.88-4.2,3.58-2.61,7.21-5.15,10.71-7.93.4-.31.81-.6,1.21-.88C72.15,19.58,64.85,23.2,59.64,28.2l-.3.29c2.87-1.63,5.65-3.35,8.42-5.08C65.89,24.77,64,26.15,62.21,27.6Z"/><path class="cls-1" d="M73.31,15.94l.64-.31.65-.53-.46.19Z"/><path class="cls-1" d="M65.15,15.56l-.09,0c-.65.45-1.32.89-2,1.32a33.6,33.6,0,0,1-2.71,2.24A25.51,25.51,0,0,0,65.15,15.56Z"/><path class="cls-1" d="M57.3,15.34l-.87.46-.27.47.64-.3Z"/><path class="cls-1" d="M45.57,24.4c3.6-2.58,6.93-5.07,10.24-7.54.12-.19.24-.39.35-.59a21.7,21.7,0,0,0-6.59,4.56c-.36.37-.8,1.14-1.23,1.37a48.5,48.5,0,0,0-5.5,4.14c.88-.61,1.76-1.23,2.66-1.89Z"/><path class="cls-1" d="M126.8,4.16l.44-.23a.57.57,0,0,0-.08-.13Z"/><path class="cls-1" d="M127.26,6.09,127.4,6a.81.81,0,0,1-.09-.1A1.54,1.54,0,0,1,127.26,6.09Z"/><path class="cls-1" d="M127.16,3.79a3.56,3.56,0,0,1-.81-1.55l1-.52c.1-.41-.29-.57-.44-.85.24-.13.49-.26.41-.4,0-.45-.43-.56-1-.4C126.13,2.21,123.73,4.2,127.16,3.79Z"/><path class="cls-1" d="M125.8,6l1.29-.69c0-.39,0-.81-.33-1.07A3.67,3.67,0,0,0,125.8,6Z"/><path class="cls-1" d="M25.92,59.37c0,.09,0,.14-.24.13l.24-.13c0-.08-.11-.19,0-.3a24,24,0,0,1-2.64,1.85c-.05.21-.09.43-.12.64,2.36-1.35,4.76-2.62,6.34-4.41C28.07,57.88,27.25,58.63,25.92,59.37Z"/><path class="cls-1" d="M23.39,62.51l-.24.13C23.44,62.65,23.44,62.6,23.39,62.51Z"/><path class="cls-1" d="M64.57,36.73a17.42,17.42,0,0,0,3.53-3.25c-2.58,1.88-5.34,3.59-7.19,5.25C62.12,38.05,63.33,37.38,64.57,36.73Z"/><path class="cls-1" d="M73.67,28.17a11.36,11.36,0,0,0-4.5,3.1c1.41-.91,2.8-1.8,4.2-2.67C73.47,28.46,73.58,28.32,73.67,28.17Z"/><path class="cls-1" d="M72.1,30.13a14.53,14.53,0,0,0-4,3.35A29.17,29.17,0,0,0,72.1,30.13Z"/><path class="cls-1" d="M45.65,60.65a12.34,12.34,0,0,1-1.83,1.77c-.06.28-.16.64-.3,1.11l.2-.11c1-.85,2-1.69,3.1-2.53a9.37,9.37,0,0,0,1-1.29C47.09,59.93,46.36,60.28,45.65,60.65Z"/><path class="cls-1" d="M43.82,62.42c.55-2.45-1.39,1,0,0Z"/><path class="cls-1" d="M46.3,49.78l.17-.09.44-.36Z"/><path class="cls-1" d="M62.09,46.57c-.94.56-1.86,1.18-2.74,1.82a40.28,40.28,0,0,0,5.23-3.67c-.25.13-.57.11-.82.24A4.63,4.63,0,0,1,62.09,46.57Z"/><path class="cls-1" d="M39.33,55.13c2.48-1.76,4.86-3.6,7.14-5.44a69.6,69.6,0,0,0,13.78-9.24c3.34-3.2,10.37-6.54,13.11-10.88a10.41,10.41,0,0,0-1.26.56,14.7,14.7,0,0,0,1.27-1.53C79.61,24.69,85.82,21,92.45,17.53c1-.52,1.5-1.33,2.48-1.85L97.84,14s0,0-.08-.07c3.95-2.31,7.79-4.69,11.74-7.36,1.89-1.18,3.93-2.08,5.9-3.11.73-.39,1,.17,1.6.06a27.68,27.68,0,0,0,6.47-1.43l.22.42a3.16,3.16,0,0,1,.89-.46c-.22,2.14-2.61,4.12.82,3.71h0l-.37.37,0,0v0A3.58,3.58,0,0,0,124,8l1.3-.68a1.1,1.1,0,0,0,.22.64,1.15,1.15,0,0,1-.06.17l-.35.19a2.6,2.6,0,0,0,0,.4c-.8,1.2-2.41,2.45-1.76,2.86.42.16,1.11-.53,2-1.21a1.09,1.09,0,0,0,.26,0c-1.16.79.52,1-.14,1.52-1,.52-1.89,1.18-2.88,1.7a113,113,0,0,0-11,6.52l-.49.32a40.17,40.17,0,0,1-5.52,3c.07-.16.15-.31.23-.47a25.55,25.55,0,0,0-4.46,2.47A107.75,107.75,0,0,1,90.71,32.7c-4.06,2.29-7.87,4.67-11.8,7.35a45.33,45.33,0,0,1,4.8-3.42c.79-.4,1.58-.81,2.33-1.24a23.52,23.52,0,0,0-2.33,1.24c-3.06,1.54-6.26,3-7.9,5.56-.31,0-.38-.12-.63,0-1.72.9-3.51,1.67-4.69,3,.07.14-.67.53-.27.68-1.4.92-3.12,1.83-4.45,2.89a6.85,6.85,0,0,0-1.54,1.7c-4.88,3.54-9.69,7.05-15,10.76-1.34.88-3,1.75-4.4,2.5,1.86-1.58,3.82-3.11,5.83-4.62A15.21,15.21,0,0,0,56.2,55.4c.32-.34.64-.67,1-1C55,56,52.78,57.53,50.66,59.12c-1.29.6-2.63,1.18-3.9,1.84l.06-.07c.9-.7,1.81-1.4,2.73-2.09a17,17,0,0,0,5.08-3.2,5.7,5.7,0,0,0,.46-.52c.32-.34.64-.67,1-1-1.36,1-2.71,1.93-4,2.89-.83.6-1.65,1.21-2.47,1.82l-1.73.8.12-.21c.42-.4.92-2.78,0-2.82-3.77,2-8.72,5.5-8.8,5.36-.54-.44,5.55-4.59,5.23-4.61l-1.17.41c.28-.29.56-.59.8-.89.66-.53,1.72-.9,2.06-1.44,1.28-1.76,3.39-2.51,5.06-4.11,1-1.08,2.18-2.42,3.36-3.76-.15-.28.66-.53.27-.68,1.38-.73,3-1.58,3.15-2.72l.09-.07a1.07,1.07,0,0,0,.32-.32c2.39-1.07,3.59-2.7,5.39-4.35a24.89,24.89,0,0,1,2.15-1.28,7.93,7.93,0,0,0-1.73.91l-.42.37c-1.76,1.17-3.34,2.49-4.95,3.73a6.81,6.81,0,0,1-.44.62l-.4.18a1.48,1.48,0,0,1,0,.21c-1.48,1.3-3.33,2.46-4.55,3.64A48.16,48.16,0,0,1,45,52.37q1.89-1.45,3.68-2.92c-1.55,1.12-3,2.2-4.4,3.27l-.71.37-1.48.78c.5-.18,1-.38,1.45-.57-.83.64-1.65,1.29-2.44,2a96.66,96.66,0,0,1-14.59,8.69q0-.33.06-.69c2.36-1.35,4.77-2.62,6.34-4.41-1.39.73-2.22,1.49-3.54,2.22,0-.08-.12-.19,0-.3a25.18,25.18,0,0,1-2.65,1.85c.12-.53.28-1.08.44-1.62a7.78,7.78,0,0,1,1.74-1.46c3.06-1.93,6.11-3.44,9.07-5.44,2.83-1.42,5.65-2.84,8.38-4.31C43.78,51.61,41.49,53.34,39.33,55.13ZM119.85,8c-.22.19-.44.4-.66.61l.17,0A1.16,1.16,0,0,0,119.85,8ZM114,10.88a31.68,31.68,0,0,0,5.9-3.5.56.56,0,0,0,0-.12A46,46,0,0,0,114,10.88Zm-8.29.61.07,0,0-.06ZM78.17,31.78c1.59-1.74,4-3,6.36-4.62.74-.39,1.17-1.34,2.16-1.86,1.15-.79,1.74-1.46,2.65-2.12l-.89.11c1.8-.77,2.34-2.13,4.21-2.76a.64.64,0,0,1,.26-.68c1.16-.79,2.54-1.15,3.37-2a27.66,27.66,0,0,0,3.22-2.24c.24-.13.51-.81.93-1.21.57-.38,1.15-.73,1.73-1.08l-.13-.08a7.92,7.92,0,0,0-1.43.89c-1.33,1.06-2.9,2.25-4.3,3.16-3.54,2.23-6.68,4.61-9.82,7-.66.52-1.25,1.2-1.92,1.72-1.91,1.74-4.69,3-5.64,4.78C78.76,31.11,78.27,31.37,78.17,31.78Zm.48,7.57a33.69,33.69,0,0,1,7.51-4.92c2-1,7.17-4.87,5.29-6C90.64,32.75,75.23,37,78.65,39.35ZM59.51,52.75a16.66,16.66,0,0,1,3-2.1ZM67,41.48c-2.67,2.67-6,4.63-8.94,6.87-2.23,1.72-5.31,2.44-7,4.6l.23.42.17-.27c.9-.37,1.72-.51,2.5-.77l-.1.1.2-.14a4.94,4.94,0,0,0,1.55-.84l.7-.62a46.88,46.88,0,0,0,8.32-6.11c1.49-1.33,2.59-2.82,4.09-4.15A8.1,8.1,0,0,0,67,41.48Z"/><path class="cls-1" d="M44,53.08c-1,.73-2,1.45-3,2.17-.74.61-1.47,1.23-2.19,1.87-3.55,2.84-8.29,5-12.35,7.59A2.29,2.29,0,0,0,27.23,66c4.84-2,9.05-5.15,13.77-7.34a.39.39,0,0,0,.08-.1c1.52-1.88,4.87-3.29,7-5.29s4.32-3.72,6.41-5.72C50.89,49.4,47.67,51.49,44,53.08Z"/><path class="cls-1" d="M69.17,31.27,66.4,33.06c-2.53,1.76-4.72,3.46-6.91,5.26,1.77-1,3.56-2,5.39-3A24,24,0,0,0,69.17,31.27Z"/><path class="cls-1" d="M57.71,39.81l1.78-1.49c-2.63,1.53-5.2,3.1-7.75,4.68-4.06,2.87-8.17,5.68-12.14,8.72-.45.34-.91.66-1.37,1,8.2-4.12,16.38-8.23,22.33-13.64l.35-.32c-3.23,1.83-6.36,3.74-9.48,5.67C53.54,42.9,55.65,41.39,57.71,39.81Z"/><path class="cls-1" d="M45,52.37l-.72.35-.74.58.52-.22Z"/><path class="cls-1" d="M53.91,52.33l.1,0,2.25-1.46c1-.84,2-1.66,3.09-2.44A31.58,31.58,0,0,0,53.91,52.33Z"/><path class="cls-1" d="M62.51,52.12l1-.52.32-.49-.71.34Z"/><path class="cls-1" d="M75.81,42.19C71.75,45,68,47.77,64.23,50.48q-.23.32-.42.63a26.89,26.89,0,0,0,7.44-5c.42-.4.94-1.21,1.43-1.47a62.63,62.63,0,0,0,6.23-4.55c-1,.68-2,1.37-3,2.08Z"/><path d="M58.31,32.33a13.3,13.3,0,0,1-1,5.09,12,12,0,0,1-3,4.26l2.42,2.88-6.43,4.15-1.51-4.15q-.68.13-1.35.21a12.8,12.8,0,0,1-4.59-.35A12.54,12.54,0,0,1,40,43.23a11.47,11.47,0,0,1-2.47-1.85A12.43,12.43,0,0,1,35.61,39a11.09,11.09,0,0,1-1.23-2.89A12,12,0,0,1,34,32.82a12.54,12.54,0,0,1,.41-3.25,13.35,13.35,0,0,1,1.18-3,12.75,12.75,0,0,1,1.84-2.54,12.11,12.11,0,0,1,2.42-2,11.28,11.28,0,0,1,6.13-1.75,14.63,14.63,0,0,1,5,.82,11.23,11.23,0,0,1,3.91,2.38,10.66,10.66,0,0,1,2.55,3.77A13.06,13.06,0,0,1,58.31,32.33Zm-8.54.49a5.26,5.26,0,0,0-.24-1.58,4.42,4.42,0,0,0-.69-1.35A3.52,3.52,0,0,0,47.69,29a3.44,3.44,0,0,0-1.58-.35,3.81,3.81,0,0,0-1.58.31,3.58,3.58,0,0,0-1.21.85A3.84,3.84,0,0,0,42.55,31a4.63,4.63,0,0,0-.27,1.6,5.38,5.38,0,0,0,.24,1.59,4.63,4.63,0,0,0,.69,1.41,3.57,3.57,0,0,0,1.14,1,3.16,3.16,0,0,0,1.58.39,3.59,3.59,0,0,0,1.58-.35,3.54,3.54,0,0,0,1.21-.92,4.23,4.23,0,0,0,.77-1.34A4.58,4.58,0,0,0,49.77,32.82Z"/><path d="M80.77,41.82a8.46,8.46,0,0,1-2,1.81,13.75,13.75,0,0,1-2.61,1.28,16.4,16.4,0,0,1-5.62,1A11.82,11.82,0,0,1,65.82,45a11,11,0,0,1-3.7-2.53,11.66,11.66,0,0,1-2.44-3.78A12.59,12.59,0,0,1,58.8,34a16.29,16.29,0,0,1,.44-3.75A15.52,15.52,0,0,1,60.5,26.8a14.41,14.41,0,0,1,2-3,12.62,12.62,0,0,1,9.74-4.42c.51,0,1,0,1.62.06a16.62,16.62,0,0,1,1.71.21,13,13,0,0,1,1.66.41,8.36,8.36,0,0,1,1.48.65l-.49,6.72a8.87,8.87,0,0,0-2-.5,16,16,0,0,0-2.05-.13,7.8,7.8,0,0,0-2.63.43,6.15,6.15,0,0,0-2.12,1.24,5.77,5.77,0,0,0-1.44,2,6.32,6.32,0,0,0-.52,2.62,6.52,6.52,0,0,0,.24,1.77,4.55,4.55,0,0,0,.75,1.51,3.81,3.81,0,0,0,1.25,1.07,3.54,3.54,0,0,0,1.73.4,5.69,5.69,0,0,0,1.38-.18A3,3,0,0,0,74,37l.07-1.37-4.22-.07.21-5.28c1.75-.06,3.49-.11,5.24-.15s3.5-.09,5.27-.16Z"/><path d="M93.75,20.13l-1,25-7.67-.35.43-16.63-2.82,1.94-2.63-6,5.73-4.28Z"/></g></g></svg>