<svg xmlns="http://www.w3.org/2000/svg" viewBox="0 0 239.61 252.33"><defs><style>.cls-1{fill:#fff;}.cls-2{fill:#f99;}.cls-11,.cls-2{opacity:0.39;}.cls-11,.cls-2,.cls-3{isolation:isolate;}.cls-4{fill:#1d1d1b;}.cls-5{fill:#f6f6f6;}.cls-6{fill:#dadada;}.cls-7{fill:#e6332a;}.cls-8{fill:#575756;}.cls-9{fill:#ffcb9c;}.cls-10{fill:#1b364f;}.cls-11{fill:#274f6d;}.cls-12{fill:#662483;}.cls-13{fill:#fff48d;}.cls-14{fill:#fc6;}.cls-15{fill:#ffed00;}.cls-16{fill:#ff5e5a;}.cls-17{fill:none;stroke:#1d1d1b;stroke-miterlimit:10;}.cls-18{fill:#ff6252;}.cls-19{fill:#432918;}.cls-20{fill:#683c11;}.cls-21{fill:#2fac66;}.cls-22{opacity:0.4;}</style></defs><title>Resurs 1</title><g id="Lager_2" data-name="Lager 2"><g id="Lager_1-2" data-name="Lager 1"><g id="OBJECTS"><path class="cls-1" d="M194.84,182.92l.58,3.66a1.29,1.29,0,0,0,1.49,1.08H197a1.31,1.31,0,0,0,1-1.46l-.61-4.49Z"/><ellipse class="cls-2" cx="119.8" cy="247.22" rx="119.8" ry="5.11"/><g class="cls-3"><path class="cls-4" d="M72.88,187A38.25,38.25,0,0,1,70,201.58a33.8,33.8,0,0,1-8.55,12.2l7,8.27L50,234l-4.34-11.91a36,36,0,0,1-3.86.61,38.92,38.92,0,0,1-3.91.2,35,35,0,0,1-9.28-1.21,36.44,36.44,0,0,1-8.32-3.4,34,34,0,0,1-7.06-5.32,34.83,34.83,0,0,1-5.47-7,33.24,33.24,0,0,1-3.53-8.29A34.52,34.52,0,0,1,3,188.36a37,37,0,0,1,4.57-17.8,35.55,35.55,0,0,1,5.29-7.29,34.85,34.85,0,0,1,6.94-5.7A33.36,33.36,0,0,1,28,153.86a32.92,32.92,0,0,1,9.33-1.31,41.82,41.82,0,0,1,14.35,2.37,32,32,0,0,1,11.22,6.81,30.67,30.67,0,0,1,7.31,10.82A37.52,37.52,0,0,1,72.88,187Zm-24.52,1.41a14.94,14.94,0,0,0-.68-4.51,11.93,11.93,0,0,0-2-3.89,9.59,9.59,0,0,0-7.82-3.7,11.21,11.21,0,0,0-4.54.88,10.14,10.14,0,0,0-3.45,2.45,11,11,0,0,0-2.22,3.68,13.17,13.17,0,0,0-.78,4.59,15.74,15.74,0,0,0,.68,4.56,13.37,13.37,0,0,0,2,4,10.39,10.39,0,0,0,3.28,2.9,9.06,9.06,0,0,0,4.54,1.11,10.18,10.18,0,0,0,4.51-1,10.37,10.37,0,0,0,3.48-2.64A12,12,0,0,0,47.58,193,13.71,13.71,0,0,0,48.36,188.36Z"/><path class="cls-4" d="M132.65,168.39q0,3.74-.35,8.22c-.24,3-.63,6.09-1.16,9.28s-1.24,6.43-2.1,9.71a68.29,68.29,0,0,1-3.2,9.46,56.1,56.1,0,0,1-4.46,8.5,33.69,33.69,0,0,1-5.85,6.91,26.24,26.24,0,0,1-7.39,4.64,23.69,23.69,0,0,1-9.08,1.69,25,25,0,0,1-10.16-1.9,22.67,22.67,0,0,1-7.39-5.09,27.09,27.09,0,0,1-5.05-7.46,47.3,47.3,0,0,1-3.07-9,68.37,68.37,0,0,1-1.54-9.74q-.43-5-.43-9.56a138.34,138.34,0,0,1,.71-14.09q.7-7,2-14.05l23.61.91q-1.36,7.92-2.35,15.91a132.67,132.67,0,0,0-1,16.07c0,.57,0,1.42.07,2.54s.15,2.39.28,3.79.33,2.82.58,4.28a23,23,0,0,0,1,4,10.17,10.17,0,0,0,1.58,3,2.79,2.79,0,0,0,2.2,1.16,3.36,3.36,0,0,0,2.62-1.39,12.72,12.72,0,0,0,2-3.71,35.85,35.85,0,0,0,1.54-5.34q.66-3,1.11-6.31c.3-2.18.55-4.37.73-6.55s.34-4.22.46-6.11.19-3.54.22-5,0-2.52,0-3.23q0-3.93-.12-7.84c-.09-2.61-.21-5.2-.38-7.79h23.61Q132.65,161.23,132.65,168.39Z"/><path class="cls-4" d="M159.79,153.46l-5.55,68.7L133,223.26V154.87Z"/><path class="cls-4" d="M205.29,169.09l-23.1,31.18h22.29l-.3,21.38-45,1.82-2-19.77,26.33-34.3-24.11,1.81-.2-20.27h45.19Z"/></g><polyline class="cls-5" points="163.07 33.2 158.31 33.2 158.31 38.42 163.49 33.22"/><path class="cls-5" d="M153.7,155.8H72.15V39.35A6.15,6.15,0,0,1,78.3,33.2h80v118A4.65,4.65,0,0,1,153.7,155.8Z"/><path class="cls-6" d="M167.84,54.76h-9.53V37.94a4.76,4.76,0,0,1,4.76-4.76h0a4.77,4.77,0,0,1,4.77,4.76h0Z"/><path class="cls-1" d="M67.39,134.24h9.53v16.82a4.76,4.76,0,0,1-4.76,4.76h0a4.77,4.77,0,0,1-4.76-4.75h0Z"/><rect class="cls-1" x="72.15" y="134.24" width="81.39" height="21.56"/><path class="cls-6" d="M148.78,134.24h9.53v16.82a4.77,4.77,0,0,1-4.75,4.76h0a4.76,4.76,0,0,1-4.76-4.76h0Z"/><path class="cls-7" d="M138.56,52h-4A1.6,1.6,0,0,1,133,50.45V46.39a1.59,1.59,0,0,1,1.59-1.59h4a1.59,1.59,0,0,1,1.59,1.59v4.06A1.59,1.59,0,0,1,138.56,52Zm-4-6.62a1,1,0,0,0-1,1v4.06a1,1,0,0,0,1,1h4a1,1,0,0,0,1-1V46.39a1,1,0,0,0-1-1Z"/><path class="cls-7" d="M138.56,64.76h-4A1.6,1.6,0,0,1,133,63.2V59.14a1.6,1.6,0,0,1,1.59-1.59h4a1.59,1.59,0,0,1,1.59,1.59V63.2A1.6,1.6,0,0,1,138.56,64.76Zm-4-6.63a1,1,0,0,0-1,1V63.2a1,1,0,0,0,1,1h4a1,1,0,0,0,1-1V59.14a1,1,0,0,0-1-1Z"/><path class="cls-7" d="M138.56,77.51h-4A1.58,1.58,0,0,1,133,76V71.9a1.59,1.59,0,0,1,1.59-1.59h4a1.59,1.59,0,0,1,1.59,1.59V76A1.59,1.59,0,0,1,138.56,77.51Zm-4-6.62a1,1,0,0,0-1,1V76a1,1,0,0,0,1,1h4a1,1,0,0,0,1-1V71.9a1,1,0,0,0-1-1Z"/><path class="cls-7" d="M138.56,90.27h-4A1.6,1.6,0,0,1,133,88.71v-4a1.59,1.59,0,0,1,1.59-1.59h4a1.59,1.59,0,0,1,1.59,1.59v4A1.6,1.6,0,0,1,138.56,90.27Zm-4-6.62a1,1,0,0,0-1,1v4a1,1,0,0,0,1,1h4a1,1,0,0,0,1-1v-4a1,1,0,0,0-1-1Z"/><path class="cls-7" d="M138.56,103h-4a1.58,1.58,0,0,1-1.58-1.55V97.41a1.6,1.6,0,0,1,1.59-1.59h4a1.59,1.59,0,0,1,1.59,1.59v4.06A1.58,1.58,0,0,1,138.56,103Zm-4-6.62a1,1,0,0,0-1,1v4.06a1,1,0,0,0,1,1h4a1,1,0,0,0,1-1V97.41a1,1,0,0,0-1-1Z"/><path class="cls-7" d="M138.56,115.78h-4a1.59,1.59,0,0,1-1.58-1.55v-4.06a1.59,1.59,0,0,1,1.59-1.59h4a1.59,1.59,0,0,1,1.59,1.59v4.06A1.59,1.59,0,0,1,138.56,115.78Zm-4-6.62a1,1,0,0,0-1,1v4.06a1,1,0,0,0,1,1h4a1,1,0,0,0,1-1v-4.06a1,1,0,0,0-1-1Z"/><path class="cls-7" d="M138.56,128.54h-4A1.6,1.6,0,0,1,133,127v-4.06a1.59,1.59,0,0,1,1.59-1.58h4a1.59,1.59,0,0,1,1.59,1.58V127A1.6,1.6,0,0,1,138.56,128.54Zm-4-6.63a1,1,0,0,0-1,1V127a1,1,0,0,0,1,1h4a1,1,0,0,0,1-1v-4.06a1,1,0,0,0-1-1Z"/><rect class="cls-6" x="82.79" y="45.09" width="44.46" height="3.31"/><rect class="cls-6" x="82.79" y="58.04" width="44.46" height="3.31"/><rect class="cls-6" x="82.79" y="63.4" width="17.97" height="3.31"/><rect class="cls-6" x="82.79" y="71.96" width="44.46" height="3.31"/><rect class="cls-6" x="82.79" y="82.85" width="44.46" height="3.31"/><rect class="cls-6" x="82.79" y="96.11" width="44.46" height="3.31"/><rect class="cls-6" x="82.79" y="101.08" width="44.46" height="3.31"/><rect class="cls-6" x="82.79" y="108.87" width="44.46" height="3.31"/><rect class="cls-6" x="82.79" y="113.84" width="23.87" height="3.31"/><rect class="cls-6" x="82.79" y="120.8" width="44.46" height="3.31"/><rect class="cls-6" x="82.79" y="125.76" width="23.87" height="3.31"/><rect class="cls-6" x="82.79" y="88.22" width="17.97" height="3.31"/><path class="cls-8" d="M136.6,50.45h-.08a.89.89,0,0,1-.69-.46,6.82,6.82,0,0,0-1.16-1.6.87.87,0,0,1,1.24-1.22,9.61,9.61,0,0,1,.78.91,67.71,67.71,0,0,1,4.74-5.27A.87.87,0,1,1,142.66,44h0a65.7,65.7,0,0,0-5.36,6.07A.88.88,0,0,1,136.6,50.45Z"/><path class="cls-8" d="M136.6,63.64h-.08a.87.87,0,0,1-.67-.44,6.3,6.3,0,0,0-1.16-1.6.87.87,0,0,1,1.25-1.22c.27.29.53.59.78.91A65.61,65.61,0,0,1,141.45,56a.87.87,0,0,1,1.24,1.22h0a64.15,64.15,0,0,0-5.35,6.07A.86.86,0,0,1,136.6,63.64Z"/><path class="cls-8" d="M136.6,101.53h-.08a.89.89,0,0,1-.69-.46,6.82,6.82,0,0,0-1.16-1.6.87.87,0,0,1,1.24-1.22,9.61,9.61,0,0,1,.78.91,67.71,67.71,0,0,1,4.74-5.27.87.87,0,0,1,1.21,1.2,63,63,0,0,0-5.35,6.08A.91.91,0,0,1,136.6,101.53Z"/><path class="cls-8" d="M136.6,126.4h-.08a.85.85,0,0,1-.69-.45,6.3,6.3,0,0,0-1.16-1.6.87.87,0,0,1,0-1.23.86.86,0,0,1,1.23,0,8.5,8.5,0,0,1,.78.91,67.71,67.71,0,0,1,4.74-5.27.87.87,0,1,1,1.23,1.22h0a65.7,65.7,0,0,0-5.36,6.07A.84.84,0,0,1,136.6,126.4Z"/><path d="M172,204.05l.7,2.9s.87,4.42,2.62,5.22.87-5.8.73-6.16-.64-4.41-1-5-.58-.25-2.6.39A2.62,2.62,0,0,0,172,204.05Z"/><path d="M190.59,176.3s-2.35.85-2.6,2.62,10.62,6.49,10.62,6.49.51,0,0-.67l-3.79-4.47s-1.41-2.24-2.55-2.66A4.32,4.32,0,0,1,190.59,176.3Z"/><path class="cls-1" d="M172,199l.63,3,.43.27a1.3,1.3,0,0,0,1.79-.42.41.41,0,0,0,0-.09h0v-3.18Z"/><circle class="cls-4" cx="160.66" cy="94.03" r="2.35"/><circle class="cls-4" cx="163.19" cy="103.64" r="2.35"/><circle class="cls-4" cx="162.8" cy="100.26" r="2.35"/><path class="cls-9" d="M164.58,116.65l.31-.45h0a2.3,2.3,0,0,0,.74,0l.46-.07h.23l.43.06a15.61,15.61,0,0,1,1.66.3c.64.15,3.2,1.86,3.72,1.53l15.25,24.24-1.3,2.28-25.83-25.32S164.08,117.35,164.58,116.65Z"/><path class="cls-9" d="M136.57,124.66c-.18-.19-.29-.29-.37-.39h0a2.29,2.29,0,0,1-.73.09h-.7l-.42.12a13.16,13.16,0,0,0-1.59.58A2.32,2.32,0,0,1,131,125l-13,28.45,1.64,2,21.63-29S137.16,125.29,136.57,124.66Z"/><path class="cls-1" d="M191.9,173.73l-1.31,2.57c-.16.73.87,2.5,1.61,2.61l1.2.19,1.32-5.59Z"/><path class="cls-10" d="M202.81,143.22c-4.18-.17-17,.24-27.26,6.06-7.53,4.27-30.92,3.41-30.92,3.41s-8,10.5,5.91,17.52,13,10.77,14.9,15.15c1.49,3.48,4.79,9.67,6.13,13.2a1.87,1.87,0,0,0,2.41,1.1l.06,0h0a1.89,1.89,0,0,0,1.14-1.49c.65-5.12,2.47-19.53,2.31-21.48-.17-2.38-7.76-12.53-7.76-12.53s15.84-1.25,22.23-5.88c0,0,.64,8.7,0,11.4l-1.06,4.18a32.33,32.33,0,0,1,3.55,1.85c2.82-4.58,10.76-17.78,12.17-23.48C208.26,145.25,206,143.32,202.81,143.22Z"/><path class="cls-11" d="M159.85,157.57s-1.53,5.44,5.4,11.23,12.21,10.21,11.68,14.79l-1.74,14.5s-1,2.9-3.3,1l-4.19-8.88a63.59,63.59,0,0,1-3.72-8.79s-.5-3-7.16-7.64-10.44-4.48-13.48-10,1.28-11.12,1.28-11.12Z"/><path class="cls-12" d="M160.14,116.38l3.23,2.83a39,39,0,0,1,13,24.59l.58,4.71-39.42,3.93,1.82-31.78Z"/><path class="cls-12" d="M177,148.52s-2.26.67-6.37,6.14c-6.54,8.7-30.64,5-33.05-2.21S177,148.52,177,148.52Z"/><path class="cls-12" d="M140.14,130.15l-2.6,3-9-4.14s5.8-13,18.66-14.13l10.69-.24,1.74,3.55Z"/><path class="cls-12" d="M169.21,128.5l2.82,4.68,8.22-4.14s-4.45-14.5-18.66-14.13l-10.66-.24-1.74,3.55Z"/><rect class="cls-13" x="73.95" y="142.27" width="138.68" height="12.83" transform="translate(-23.37 26.76) rotate(-9.87)"/><path class="cls-14" d="M212.69,143.14l17.9-9.62-20.09-3h0a13.51,13.51,0,0,0,.8,9.78Z"/><path class="cls-4" d="M225.32,132.73a2.21,2.21,0,0,0,.58,3.31l4.69-2.52Z"/><rect class="cls-4" x="61.76" y="155.31" width="13.31" height="12.83" transform="translate(-26.66 14.09) rotate(-9.85)"/><rect class="cls-15" x="63.77" y="155.95" width="1.97" height="12.83" transform="translate(-26.82 13.47) rotate(-9.85)"/><rect class="cls-15" x="69.5" y="154.95" width="1.97" height="12.83" transform="translate(-26.57 14.44) rotate(-9.85)"/><path class="cls-16" d="M59.37,169.8l3.59-.62-2.2-12.63-3.59.63a6.39,6.39,0,0,0-5.23,7.35v.07h0a6.39,6.39,0,0,0,7.37,5.21Z"/><path class="cls-4" d="M88.94,160.7,81.51,162a2.06,2.06,0,0,1-2.37-1.67h0A2.06,2.06,0,0,1,80.81,158l7.43-1.29a2.05,2.05,0,0,1,2.37,1.67h0A2.05,2.05,0,0,1,88.94,160.7Z"/><path class="cls-9" d="M116.53,160.79a3.77,3.77,0,0,1,.58,0c.49-.48,2-2,2.18-2.22s.13-.58-.33-.47a14.77,14.77,0,0,0-2.32,2s1.16-2.43,1.54-3,.2-1.57-.32-1a27.59,27.59,0,0,0-2,3.38s.91-3.47,1.23-4.12-.21-1-.64-.83-2.14,5.22-2.14,5.22.58-3.22.87-4.27-.42-1.42-.82-.95-1.44,5.28-1.69,6.37C113.58,161.19,115.8,160.8,116.53,160.79Z"/><path class="cls-9" d="M145.46,97.9s-2.07-.82-2.68,1-.15,5.59,3,6.59,2.74-2.36,2.74-2.36Z"/><path class="cls-9" d="M189.92,148.57a4,4,0,0,0-.58.13c-.58-.4-2.32-1.66-2.5-1.85s-.21-.58.26-.52a16.33,16.33,0,0,1,2.59,1.6s-1.53-2.22-2-2.78-.44-1.51.15-1.07a27.24,27.24,0,0,1,2.46,3s-1.43-3.27-1.86-3.89.06-1,.51-.92,2.92,4.86,2.92,4.86-1.06-3.09-1.51-4.05.19-1.48.66-1.08,2.23,5,2.65,6.06C192.9,148.51,190.64,148.47,189.92,148.57Z"/><path class="cls-9" d="M164.1,101.3c.27,3.32-.19,6.38-4.87,9.23a7.12,7.12,0,0,0-1.06,6.27c1.17,3.42-8.46,4.32-7.61-.69s-2.2-10.3-4.33-13.25-2.2-9.67,1.53-12.31c1.47-1,5.43-1.12,8.12-.18A12.78,12.78,0,0,1,164.1,101.3Z"/><path class="cls-17" d="M158.47,96.79a3.45,3.45,0,1,0,3.42-3.48h0A3.44,3.44,0,0,0,158.47,96.79Z"/><path class="cls-17" d="M149.8,96.89a3.45,3.45,0,1,0,3.42-3.48h0A3.44,3.44,0,0,0,149.8,96.89Z"/><polygon class="cls-18" points="157.61 94.03 160.21 100.75 156.55 100.8 157.61 94.03"/><line class="cls-17" x1="159.15" y1="94.69" x2="155.96" y2="94.72"/><path d="M159.87,96.8c.09.37.38.62.64.55s.39-.43.29-.8-.38-.62-.64-.58S159.77,96.43,159.87,96.8Z"/><path d="M154,97.09c.1.37.39.62.65.58s.38-.43.29-.8-.39-.62-.65-.58S153.86,96.72,154,97.09Z"/><circle class="cls-4" cx="148.75" cy="103.15" r="2.35"/><circle class="cls-4" cx="147.12" cy="101.28" r="2.35"/><circle class="cls-4" cx="146.4" cy="97.9" r="2.35"/><circle class="cls-4" cx="158.31" cy="91.67" r="2.35"/><circle class="cls-4" cx="150.49" cy="106.2" r="2.35"/><circle class="cls-4" cx="153.93" cy="108.95" r="2.35"/><circle class="cls-4" cx="157.74" cy="110.49" r="2.35"/><circle class="cls-4" cx="161.81" cy="109.49" r="2.35"/><circle class="cls-4" cx="163.19" cy="107.02" r="2.35"/><circle class="cls-4" cx="163.26" cy="102.58" r="2.35"/><circle class="cls-4" cx="160.21" cy="105.51" r="2.35"/><circle class="cls-4" cx="157.74" cy="108.14" r="2.35"/><circle class="cls-4" cx="153.33" cy="106.59" r="2.35"/><circle class="cls-4" cx="151.57" cy="103.43" r="2.35"/><circle class="cls-4" cx="155.96" cy="103.84" r="2.35"/><circle class="cls-4" cx="159.83" cy="103.84" r="2.35"/><circle class="cls-4" cx="156.28" cy="106.59" r="2.35"/><path class="cls-1" d="M158.66,103.57a4.26,4.26,0,0,1,1.74-.5,1.53,1.53,0,0,1,1.71,1.34c.14,1-.88,1.74-2.09,2.32a6.59,6.59,0,0,1-4.43,0c-1.29-.67-2-1.16-2.22-2.07a1.74,1.74,0,0,1,1.16-2,1.93,1.93,0,0,1,1.74.4A2.21,2.21,0,0,0,158.66,103.57Z"/><path class="cls-19" d="M144.13,93.93l-.13-.3a7.72,7.72,0,0,1,4-10.08h0a7.75,7.75,0,0,1,10.24,3.89h0l.37.83Z"/><path class="cls-20" d="M144.36,97.25l15.46-5.85A2.44,2.44,0,0,0,161.39,89l0-1.09a1.4,1.4,0,0,0-1.49-1.31,1.2,1.2,0,0,0-.46.11l-18,7.12a1.4,1.4,0,0,0-.74,1.85,1.39,1.39,0,0,0,.43.56l.88.7A2.46,2.46,0,0,0,144.36,97.25Z"/><polygon class="cls-1" points="143.39 90.81 156.95 85.5 157.55 86.28 143.38 91.98 143.39 90.81"/><path class="cls-21" d="M229.7,247.68a3.46,3.46,0,0,0-3.54-1.7c-2.6.25-1.92-2.09-4.83-2.47s-3.43.48-7-2.49-6.47,2.32-9.09.14-4.52-5.75-9-4.38-2.58,4.88-5.22,6.2-5.39,1.74-6.5,4.77Z"/><path class="cls-21" d="M88.89,246.72A3.46,3.46,0,0,1,92.43,245c2.6.25,1.92-2.08,4.82-2.47s3.44.48,7-2.48,6.48,2.31,9.11.13,4.51-5.75,9-4.37,2.58,4.88,5.21,6.2,5.39,1.74,6.5,4.77Z"/><path class="cls-1" d="M233.57,51.6H186.88s2.32-5.63,5.25-5.86,3.74,1.56,4.67,1.38,2.45-4.82,6.19-5,5.19,3.25,7.23,3.89,6.07.28,9.22-4.79,9.12.37,9.27,4.28c.24,6,9.4,2.68,9.4,6.15Z"/><path class="cls-1" d="M48.6,103.79H1.91s2.32-5.63,5.26-5.87,3.73,1.56,4.66,1.39,2.45-4.82,6.19-5.06,5.19,3.25,7.23,3.89,6.07.29,9.22-4.79,9.13.37,9.28,4.29c.24,6,9.4,2.67,9.4,6.15Z"/><circle class="cls-13" cx="30.37" cy="24.97" r="24.97"/><g class="cls-22"><path class="cls-1" d="M211.13,90a4.39,4.39,0,1,0-7.74-2.83v.3h0v-.3a4.4,4.4,0,1,0-7.3,3.28l7.3,7.41,7.33-7.43a4.68,4.68,0,0,0,.38-.39l0,0Z"/><path class="cls-1" d="M77.6,16.13a3.65,3.65,0,1,0-6.44-2.36V14h0v-.25a3.65,3.65,0,1,0-6,2.73l6.08,6.16,6.08-6.18a3.22,3.22,0,0,0,.32-.32h0Z"/><path class="cls-1" d="M33.39,136.58A3.65,3.65,0,1,0,27,134.22v.25h0v-.25A3.66,3.66,0,1,0,20.89,137L27,143.11,33,136.93l.32-.32v0Z"/><path class="cls-1" d="M236.32,159.6a1.74,1.74,0,1,0-2.73-2.15,1.77,1.77,0,0,0-.37,1v.13h0v-.13a1.76,1.76,0,1,0-3.52,0,1.73,1.73,0,0,0,.58,1.32l2.93,3,2.93-3,.15-.15h0Z"/><path class="cls-1" d="M206.49,16.26a1.73,1.73,0,1,0-2.72-2.15,1.71,1.71,0,0,0-.38,1v.12h0V15.1a1.74,1.74,0,0,0-3.48.09,1.78,1.78,0,0,0,.55,1.22l2.93,3,2.94-3,.15-.15h0Z"/><path class="cls-1" d="M33.57,72.94A1.69,1.69,0,0,0,34,71.78a1.76,1.76,0,1,0-3.52,0v.12h0v-.12a1.74,1.74,0,0,0-3.48,0,1.78,1.78,0,0,0,.58,1.28l2.9,3,2.93-3a1.21,1.21,0,0,0,.16-.16h0Z"/><path class="cls-1" d="M70.48,159.05a1.73,1.73,0,1,0-2.72-2.15,1.71,1.71,0,0,0-.38,1V158h0v-.12a1.74,1.74,0,1,0-2.9,1.31l2.9,3,3-2.95.16-.15h0Z"/></g></g></g></g></svg>